<?xml version="1.0" encoding="utf-8"?>
<!-- Generator: Adobe Illustrator 19.2.0, SVG Export Plug-In . SVG Version: 6.00 Build 0)  -->
<svg version="1.1" id="Layer_1" xmlns="http://www.w3.org/2000/svg" xmlns:xlink="http://www.w3.org/1999/xlink" x="0px" y="0px"
	 viewBox="0 0 215 218.7" enable-background="new 0 0 215 218.7" xml:space="preserve">
<path fill="#FFFFFF" d="M107.4,218c58.9,0,106.4-48.7,106.6-108.8C214.2,49.8,166.2-0.2,107.4,0.5C47.8,1.1,0.7,49.2,0.7,109.2
	C0.7,169.3,48.5,218,107.4,218z"/>
<g>
	<g>
		<path d="M57.5,34L53,27.2c-0.2-0.3-1.2-1.8-1.9-2.9l0,0l3.2,11.8l-1.6,1.1L42.8,30l0,0c0.7,1.1,1.7,2.5,1.9,2.8l4.6,6.7l-1.5,1
			l-7.7-11.4l2.3-1.5l9.9,7.4l0,0l-3.2-11.9l2.3-1.5l7.7,11.4L57.5,34z"/>
		<path d="M63.6,30.8l-1.7,0.9l-6.4-12.2l1.7-0.9L63.6,30.8z"/>
		<path d="M67.6,27l6.6-2.8l0.6,1.5l-8.4,3.5l-5.3-12.7l1.8-0.7L67.6,27z"/>
		<path d="M76.6,20.6l0.3,0.9c0.5,1.6,1.4,1.9,2.7,1.6c1.7-0.5,1.9-1.6,1.5-2.9l-2.8-9.8L80,9.9l2.8,9.7c0.9,3.1-1,4.5-2.8,5.1
			c-3.2,0.9-4.5-0.9-4.8-2.2l-0.4-1.3L76.6,20.6z"/>
		<path d="M93.1,21.7c-5.3,0.8-7.5-3.2-7.9-6.2c-0.4-2.9,0.5-7.4,5.8-8.2c5.3-0.8,7.5,3.2,7.9,6.2C99.3,16.5,98.3,21,93.1,21.7z
			 M91.2,9c-3.1,0.5-4.6,3.1-4.1,6.3c0.5,3.2,2.7,5.3,5.7,4.8c3.1-0.5,4.6-3.1,4.1-6.3C96.4,10.6,94.2,8.6,91.2,9z M90.1,6.3
			l-1.8,0.3L88,4.6l1.8-0.3L90.1,6.3z M93.2,5.8l-1.8,0.3l-0.3-1.9l1.8-0.3L93.2,5.8z"/>
		<path d="M113.5,20.4l0.1-8.1c0-0.4,0.1-2.1,0.1-3.4h0l-4.2,11.5l-1.9,0l-3.8-11.6l0,0c0,1.3,0,3,0,3.4l-0.1,8.1l-1.9,0L102,6.4
			l2.8,0l3.9,11.7h0l4.2-11.6l2.7,0l-0.2,13.8L113.5,20.4z"/>
		<path d="M121.7,17.2l-2.1,3.7l-2-0.3l7.6-12.7l2.1,0.4l2.8,14.4l-2.1-0.3l-0.7-4.2L121.7,17.2z M126.9,16.4l-1.1-6.3l0,0l-3.3,5.6
			L126.9,16.4z M125.7,6.4l-1.8-0.3l0.3-1.9l1.8,0.3L125.7,6.4z M128.9,7l-1.8-0.3l0.3-1.9l1.8,0.3L128.9,7z"/>
		<path d="M134,23.9l-1.8-0.6l4.2-13.1l6.3,2c2.2,0.7,4.2,2.2,3.3,5c-0.6,1.9-1.9,2.3-2.9,2.5c0.7,0.6,1.3,1.1,0.8,3l-0.7,2.4
			c-0.2,0.7-0.2,1,0.3,1.5l-0.1,0.3l-2.2-0.7c0-0.9,0.6-2.9,0.7-3.4c0.3-1.1,0.5-2.4-1.7-3.1l-4.4-1.4L134,23.9z M136.3,16.7
			l4.2,1.4c1.3,0.4,2.9,0.6,3.5-1.4c0.6-2-0.8-2.7-1.7-3l-4.6-1.5L136.3,16.7z"/>
		<path d="M147.7,28.9L146,28l6.1-12.4l1.7,0.9l-3,6l9.1-2.9l2.4,1.2l-7.8,2.4l1.8,10.1l-2.2-1.1l-1.4-8.4l-2.9,0.9L147.7,28.9z"/>
		<path d="M164.5,22.1l9.6,6.5l-0.9,1.4l-4-2.7l-6.8,10.1l-1.6-1.1l6.8-10.1l-4-2.7L164.5,22.1z"/>
	</g>
	<path fill="#FFFFFF" d="M107.2,111.1"/>
	<g>
		<path fill="#00975F" d="M57.4,144.4c1.4,0,2.6-1.1,2.6-2.5c0-1.4-1.1-2.6-2.6-2.6c-1.4,0-2.6,1.1-2.6,2.6
			C54.8,143.2,56,144.4,57.4,144.4z"/>
		<path fill="#00975F" d="M57.4,141.8"/>
	</g>
	<path fill="#00975F" d="M54.2,178.5c-4.5-3.4-8.7-7.3-12.4-11.4l11.9-16h21.1L54.2,178.5z"/>
	<path fill="#00975F" d="M72.1,188.9c-4.8-2.1-9.3-4.5-13.6-7.4L81.4,151h19.1L72.1,188.9z"/>
	<path fill="#00975F" d="M94.5,195.3c-5.9-0.9-11.7-2.3-17.2-4.3l29.8-39.9h20.4L94.5,195.3z"/>
	<path fill="#00975F" d="M123.3,194.7c-5.2,1-10.6,1.5-16.1,1.5c-2.2,0-4.5-0.1-6.7-0.3l33.6-44.9h22L123.3,194.7z"/>
	<path fill="#00975F" d="M183.9,151.1c-11,20.1-29.9,35.4-52.8,41.8l31.5-41.9L183.9,151.1z"/>
	<path fill="#00975F" d="M194.1,109.1c-0.1-2.7-0.3-5.4-0.6-8.1l-30.8,41.1h6.6L194.1,109.1z"/>
	<path fill="#00975F" d="M187.9,79.3c-0.8-1.9-1.6-3.8-2.5-5.6l-51.2,68.4h6.6L187.9,79.3z"/>
	<path fill="#00975F" d="M175.9,58.9c-1.1-1.4-2.3-2.8-3.5-4.2l-65.3,87.4h6.6L175.9,58.9z"/>
	<path fill="#00975F" d="M156.9,41.1c-4.7-3.2-9.7-5.9-14.9-8.2L63.8,137.5c1.6,0.7,3.2,1.7,5.1,3.1c3.3,2.6,11.7,2.6,14.3-0.9
		L156.9,41.1z"/>
	<path fill="#00975F" d="M28.5,147.2l90.1-120.6c6.3,0.8,12.4,2.3,18.2,4.4L58.4,136C48,134.7,51,146.8,28.5,147.2"/>
	<path fill="#00975F" d="M20.3,112.4c0-0.5,0-0.9,0-1.4c0-38.6,26.1-71.1,62-81.6L20.3,112.4z"/>
	<path fill="#00975F" d="M90.3,27.5c5.5-1.1,11.1-1.6,16.9-1.6c1.8,0,3.6,0.1,5.3,0.2L26.1,141.7c-2.6-6.7-4.4-13.8-5.3-21.2
		L90.3,27.5z"/>
	<path fill="#00975F" d="M28.5,147.2"/>
	<path fill="#00975F" d="M38.3,162.9c-2.9-3.7-5.5-7.7-7.8-11.8h16.6L38.3,162.9z"/>
	<path fill="#00975F" d="M107.2,111"/>
</g>
</svg>
